<svg xmlns="http://www.w3.org/2000/svg" xmlns:xlink="http://www.w3.org/1999/xlink" width="500" zoomAndPan="magnify" viewBox="0 0 375 374.999991" height="500" preserveAspectRatio="xMidYMid meet" version="1.0"><defs><g/></defs><path fill="#040b14" d="M 187.5 0 C 83.945312 0 0 83.945312 0 187.5 C 0 291.054688 83.945312 375 187.5 375 C 291.054688 375 375 291.054688 375 187.5 C 375 83.945312 291.054688 0 187.5 0 " fill-opacity="1" fill-rule="nonzero"/><g fill="#149ddd" fill-opacity="1"><g transform="translate(43.406253, 296.983426)"><g><path d="M 46.242188 17.003906 L 47.433594 17.003906 C 49.523438 16.707031 50.714844 16.40625 52.804688 15.511719 C 78.160156 4.476562 93.078125 -22.078125 101.132812 -48.328125 C 103.519531 -57.578125 106.203125 -66.230469 106.203125 -75.773438 C 106.203125 -79.058594 107.695312 -81.742188 110.382812 -84.128906 C 122.3125 -94.867188 134.246094 -104.714844 147.074219 -114.558594 C 148.269531 -115.453125 149.164062 -116.050781 149.761719 -116.644531 C 150.058594 -116.945312 150.355469 -117.542969 150.355469 -118.4375 C 150.355469 -119.332031 150.058594 -119.925781 149.460938 -120.226562 C 149.164062 -120.824219 148.867188 -121.121094 147.96875 -121.121094 C 147.671875 -121.121094 147.375 -121.121094 147.074219 -120.824219 C 145.882812 -119.925781 144.6875 -119.332031 143.496094 -118.734375 C 142.300781 -117.839844 141.109375 -116.945312 140.214844 -116.050781 C 130.367188 -107.996094 120.226562 -99.640625 110.679688 -91.289062 C 107.996094 -89.199219 106.203125 -88.007812 105.90625 -88.007812 C 105.308594 -88.007812 104.714844 -88.304688 104.414062 -89.199219 C 104.117188 -89.796875 103.222656 -90.988281 102.328125 -92.480469 C 96.65625 -102.921875 89.5 -103.816406 78.757812 -103.816406 C 64.140625 -103.816406 49.820312 -99.042969 35.800781 -94.570312 C 33.113281 -93.675781 30.132812 -92.78125 27.445312 -91.886719 C 24.761719 -90.988281 21.777344 -89.796875 19.09375 -88.902344 C 16.707031 -88.304688 14.320312 -88.007812 11.933594 -88.007812 C 10.441406 -88.007812 8.949219 -88.007812 8.054688 -88.304688 C 6.265625 -88.601562 5.371094 -89.5 5.371094 -90.988281 C 5.070312 -91.886719 5.070312 -92.480469 5.070312 -93.375 C 5.070312 -94.273438 5.070312 -94.867188 5.070312 -95.761719 C 5.371094 -100.238281 6.5625 -104.117188 7.757812 -107.996094 C 19.691406 -145.582031 48.925781 -194.210938 82.636719 -215.390625 C 89.796875 -219.867188 97.554688 -224.042969 106.203125 -224.9375 C 107.398438 -224.9375 107.996094 -225.535156 107.996094 -226.730469 C 107.695312 -227.625 106.800781 -228.21875 105.90625 -228.519531 C 89.5 -228.519531 69.511719 -214.199219 57.875 -202.5625 C 33.710938 -178.398438 10.441406 -139.019531 1.191406 -105.609375 C 0.296875 -102.027344 -0.296875 -98.746094 0 -95.167969 C 0 -87.707031 7.160156 -82.933594 14.019531 -82.933594 C 14.917969 -82.933594 16.40625 -83.234375 18.496094 -83.53125 C 22.375 -84.425781 26.253906 -85.621094 29.832031 -86.8125 L 53.996094 -94.867188 C 63.246094 -98.148438 72.792969 -99.640625 82.636719 -99.640625 C 90.988281 -99.640625 97.851562 -97.554688 100.535156 -88.304688 C 101.429688 -85.023438 101.429688 -82.933594 98.746094 -80.847656 C 75.476562 -59.964844 42.660156 -25.359375 36.992188 6.265625 C 36.097656 13.125 39.378906 17.003906 46.242188 17.003906 Z M 44.449219 12.828125 C 42.960938 12.828125 42.0625 11.933594 42.0625 9.84375 C 42.0625 0.894531 50.714844 -16.109375 55.191406 -23.566406 C 66.230469 -41.46875 81.445312 -57.277344 96.65625 -71.597656 C 96.957031 -71.898438 97.554688 -72.492188 98.148438 -72.792969 C 98.449219 -73.089844 99.042969 -73.386719 99.640625 -73.6875 C 100.238281 -73.984375 100.835938 -73.6875 101.132812 -72.492188 C 101.132812 -71.300781 101.132812 -70.40625 100.835938 -69.808594 C 94.273438 -38.484375 82.339844 -8.351562 54.59375 8.351562 C 51.910156 10.441406 49.222656 11.636719 45.941406 12.53125 C 45.644531 12.828125 45.046875 12.828125 44.449219 12.828125 Z M 44.449219 12.828125 "/></g></g></g><g fill="#149ddd" fill-opacity="1"><g transform="translate(186.901538, 296.983426)"><g><path d="M 12.230469 -2.683594 C 14.320312 -2.683594 15.8125 -3.578125 16.707031 -5.667969 C 18.199219 -8.054688 19.09375 -10.738281 19.988281 -13.425781 L 23.566406 -25.65625 C 29.832031 -51.609375 37.886719 -84.726562 49.222656 -116.050781 C 60.558594 -147.074219 75.179688 -176.90625 95.167969 -196 C 98.449219 -199.28125 103.519531 -203.757812 108.292969 -204.652344 C 108.589844 -204.949219 109.1875 -204.949219 110.082031 -204.949219 C 111.574219 -204.949219 112.46875 -204.054688 113.066406 -201.96875 C 113.664062 -199.582031 113.664062 -196.894531 113.363281 -193.613281 C 112.769531 -190.929688 112.171875 -188.246094 111.871094 -185.558594 C 111.277344 -182.875 110.679688 -179.890625 110.082031 -177.207031 C 100.535156 -136.335938 84.726562 -98.148438 64.738281 -60.859375 C 62.050781 -56.085938 58.769531 -51.609375 54.890625 -47.136719 C 46.835938 -37.886719 40.273438 -29.234375 34.605469 -18.792969 C 34.308594 -17.601562 34.308594 -16.707031 34.605469 -16.109375 C 35.5 -14.917969 36.695312 -14.320312 38.1875 -14.320312 C 38.78125 -14.320312 39.378906 -14.617188 40.273438 -14.917969 C 43.554688 -17.304688 50.714844 -27.746094 53.402344 -32.21875 C 61.457031 -46.242188 71 -58.472656 82.933594 -69.210938 C 102.921875 -89.199219 124.105469 -102.625 148.566406 -115.15625 C 149.460938 -115.453125 150.355469 -116.050781 150.953125 -116.644531 C 151.550781 -116.945312 151.550781 -117.839844 151.253906 -119.332031 C 150.953125 -120.226562 150.355469 -120.523438 148.867188 -120.523438 L 145.285156 -118.734375 C 122.613281 -107.097656 102.027344 -94.867188 84.128906 -76.96875 C 82.933594 -76.074219 81.742188 -74.878906 80.847656 -73.984375 C 79.652344 -72.792969 78.460938 -71.597656 77.566406 -70.703125 C 76.96875 -71.898438 76.96875 -73.089844 77.566406 -73.984375 L 80.25 -79.652344 C 96.957031 -113.960938 110.082031 -150.355469 116.945312 -187.648438 C 117.839844 -191.226562 118.136719 -195.105469 117.242188 -198.6875 C 116.050781 -204.949219 113.066406 -209.128906 107.996094 -209.128906 C 105.90625 -209.128906 103.222656 -208.234375 100.535156 -206.742188 C 78.757812 -190.929688 62.351562 -163.183594 50.117188 -132.753906 C 37.886719 -102.328125 28.9375 -69.210938 22.671875 -43.257812 C 21.480469 -38.78125 20.285156 -34.308594 19.390625 -29.832031 C 18.199219 -25.359375 17.003906 -20.882812 15.511719 -16.40625 C 14.617188 -13.125 14.320312 -10.441406 11.933594 -8.351562 C 11.039062 -8.652344 10.144531 -9.25 9.84375 -10.441406 C 9.546875 -11.636719 9.25 -12.828125 8.949219 -14.320312 C 8.652344 -15.511719 8.652344 -16.707031 8.351562 -17.898438 C 4.476562 -37.289062 4.476562 -56.683594 5.964844 -76.671875 C 8.054688 -102.921875 11.933594 -127.984375 18.792969 -153.042969 C 20.285156 -158.113281 21.777344 -163.484375 23.269531 -168.851562 C 24.460938 -173.925781 25.65625 -179.292969 27.148438 -184.367188 C 27.445312 -185.261719 27.445312 -186.453125 27.445312 -188.542969 C 27.445312 -189.734375 26.847656 -190.632812 25.65625 -190.929688 L 25.058594 -190.929688 C 24.164062 -190.929688 23.566406 -190.332031 23.269531 -189.140625 C 22.375 -187.050781 21.777344 -184.964844 21.480469 -182.277344 C 21.480469 -178.996094 20.585938 -176.011719 19.390625 -172.730469 C 15.8125 -159.902344 12.230469 -146.777344 9.546875 -133.351562 C 2.683594 -103.519531 -0.894531 -73.386719 0.296875 -42.363281 C 0.296875 -34.007812 2.386719 -2.683594 12.230469 -2.683594 Z M 12.230469 -2.683594 "/></g></g></g></svg>